<svg id="facebook" xmlns="http://www.w3.org/2000/svg" width="28.174" height="28.174" viewBox="0 0 28.174 28.174">
  <path id="Path_34" data-name="Path 34" d="M24.652,0H3.522A3.525,3.525,0,0,0,0,3.522v21.13a3.525,3.525,0,0,0,3.522,3.522h21.13a3.525,3.525,0,0,0,3.522-3.522V3.522A3.525,3.525,0,0,0,24.652,0Z" fill="#1976d2"/>
  <path id="Path_35" data-name="Path 35" d="M205.206,104.8h-4.4v-3.522c0-.972.789-.88,1.761-.88h1.761V96H200.8a5.282,5.282,0,0,0-5.283,5.283V104.8H192v4.4h3.522v9.685H200.8v-9.685h2.641Z" transform="translate(-181.435 -90.717)" fill="#fafafa"/>
</svg>
