<svg id="search" xmlns="http://www.w3.org/2000/svg" width="27.805" height="27.805" viewBox="0 0 27.805 27.805">
  <path id="Path_30" data-name="Path 30" d="M6.162,147.562l-.968,3.613-3.537.075a13.927,13.927,0,0,1-.1-12.982h0l3.149.577,1.38,3.13a8.3,8.3,0,0,0,.078,5.586Z" transform="translate(0 -130.759)" fill="#fbbb00"/>
  <path id="Path_31" data-name="Path 31" d="M274.982,208.176a13.9,13.9,0,0,1-4.956,13.439h0l-3.967-.2-.561-3.5a8.286,8.286,0,0,0,3.565-4.231h-7.434v-5.5h13.354Z" transform="translate(-247.42 -196.871)" fill="#518ef8"/>
  <path id="Path_32" data-name="Path 32" d="M51.457,317.349h0A13.907,13.907,0,0,1,30.509,313.1l4.505-3.688a8.268,8.268,0,0,0,11.915,4.233Z" transform="translate(-28.852 -292.606)" fill="#28b446"/>
  <path id="Path_33" data-name="Path 33" d="M49.846,3.2l-4.5,3.687a8.267,8.267,0,0,0-12.188,4.329L28.625,7.509h0A13.905,13.905,0,0,1,49.846,3.2Z" transform="translate(-27.07)" fill="#f14336"/>
</svg>
